<?xml version="1.0" encoding="utf-8"?>
<!-- Generator: Adobe Illustrator 24.3.0, SVG Export Plug-In . SVG Version: 6.00 Build 0)  -->
<svg version="1.0" id="katman_1" xmlns="http://www.w3.org/2000/svg" xmlns:xlink="http://www.w3.org/1999/xlink" x="0px" y="0px"
	 viewBox="0 0 6035.6 4409.3" style="enable-background:new 0 0 6035.6 4409.3;" xml:space="preserve">
<style type="text/css">
	.st0{fill-rule:evenodd;clip-rule:evenodd;fill:#21A144;}
</style>
<path id="Crypto_Logo" class="st0" d="M4013.4,1561.5c-221.3-372.1-625.6-599.6-1087.9-599.6c-699.7,0-1245.3,538.4-1245.3,1242.7
	s545.6,1296.9,1245.3,1296.9c462.2,0,866.6-270.8,1087.9-642.9h634.2c-262.1,694.4-940.2,1188-1722.1,1188
	c-1010.7,0-1851.8-824.7-1851.8-1842s841-1842,1851.8-1842c781.9,0,1460,504.4,1722.1,1198.9L4013.4,1561.5L4013.4,1561.5z
	 M4961.8,1988l-639,455.1h-801.7c-93.4,240.9-327.1,411.7-600.8,411.7c-355.9,0-644.4-288.6-644.4-644.7s288.5-644.7,644.4-644.7
	c277.9,0,514.6,176,605.1,422.6L4961.8,1988L4961.8,1988z"/>
</svg>
