<?xml version="1.0" encoding="utf-8"?>
<!-- Generator: Adobe Illustrator 24.3.0, SVG Export Plug-In . SVG Version: 6.00 Build 0)  -->
<svg version="1.1" id="Layer_1" xmlns="http://www.w3.org/2000/svg" xmlns:xlink="http://www.w3.org/1999/xlink" x="0px" y="0px"
	 viewBox="0 0 135 40" style="enable-background:new 0 0 135 40;" xml:space="preserve">
<style type="text/css">
	.st0{fill:#007C1A;}
</style>
<path class="st0" d="M130.2,0H4.7C2.1,0,0,2.1,0,4.7v30.5C0,37.9,2.1,40,4.7,40h125.5c2.6,0,4.7-2.1,4.7-4.7V4.7
	C134.9,2.1,132.8,0,130.2,0z M130.2,39.1H4.7c-2.1,0-3.8-1.7-3.8-3.8V4.7c0-2.1,1.7-3.8,3.8-3.8h125.5c2.1,0,3.8,1.7,3.8,3.8v30.5
	C134,37.4,132.3,39.1,130.2,39.1z"/>
<path class="st0" d="M30.1,19.8c0-3.2,2.6-4.8,2.8-4.9c-1.5-2.2-3.9-2.5-4.7-2.5c-2-0.2-3.9,1.2-4.9,1.2s-2.6-1.2-4.2-1.1
	c-2.1,0-4.1,1.3-5.2,3.2c-2.3,3.9-0.6,9.7,1.6,12.9c1.1,1.6,2.4,3.3,4,3.2c1.6-0.1,2.2-1,4.2-1c1.9,0,2.5,1,4.2,1s2.8-1.6,3.9-3.1
	c1.3-1.8,1.8-3.5,1.8-3.6C33.5,24.9,30.2,23.6,30.1,19.8z M26.9,10.3c0.9-1.1,1.5-2.6,1.3-4.1c-1.3,0.1-2.8,0.9-3.8,1.9
	c-0.8,0.9-1.5,2.5-1.3,3.9C24.6,12.2,26,11.4,26.9,10.3z M53.7,31.5h-2.3l-1.2-3.9h-4.3l-1.2,3.9h-2.2l4.3-13.3h2.6
	C49.4,18.2,53.7,31.5,53.7,31.5z M49.8,26l-1.1-3.5c-0.1-0.4-0.3-1.2-0.7-2.5c-0.1,0.6-0.3,1.4-0.6,2.5L46.2,26H49.8z M64.7,26.6
	c0,1.6-0.4,2.9-1.3,3.9c-0.8,0.8-1.8,1.3-3,1.3c-1.3,0-2.2-0.5-2.7-1.4v5h-2.1V25.1c0-1,0-2.1-0.1-3.2h1.9l0.1,1.5
	c0.7-1.1,1.8-1.7,3.2-1.7c1.1,0,2.1,0.4,2.8,1.3C64.3,23.9,64.7,25.1,64.7,26.6z M62.5,26.7c0-0.9-0.2-1.7-0.6-2.3
	c-0.5-0.6-1.1-0.9-1.9-0.9c-0.5,0-1,0.2-1.4,0.5c-0.4,0.4-0.7,0.8-0.8,1.4c-0.1,0.3-0.1,0.5-0.1,0.6v1.6c0,0.7,0.2,1.3,0.6,1.8
	c0.4,0.5,1,0.7,1.7,0.7c0.8,0,1.4-0.3,1.9-0.9C62.3,28.5,62.5,27.7,62.5,26.7z M75.7,26.6c0,1.6-0.4,2.9-1.3,3.9
	c-0.8,0.8-1.8,1.3-3,1.3c-1.3,0-2.2-0.5-2.7-1.4v5h-2.1V25.1c0-1,0-2.1-0.1-3.2h1.9l0.1,1.5c0.7-1.1,1.8-1.7,3.2-1.7
	c1.1,0,2.1,0.4,2.8,1.3C75.3,23.9,75.7,25.1,75.7,26.6z M73.5,26.7c0-0.9-0.2-1.7-0.6-2.3c-0.5-0.6-1.1-0.9-1.9-0.9
	c-0.5,0-1,0.2-1.4,0.5c-0.4,0.4-0.7,0.8-0.8,1.4c-0.1,0.3-0.1,0.5-0.1,0.6v1.6c0,0.7,0.2,1.3,0.6,1.8s1,0.7,1.7,0.7
	c0.8,0,1.4-0.3,1.9-0.9C73.3,28.5,73.5,27.7,73.5,26.7z M88,27.8c0,1.1-0.4,2.1-1.2,2.8c-0.9,0.8-2.1,1.2-3.6,1.2
	c-1.4,0-2.6-0.3-3.4-0.8l0.5-1.8c0.9,0.6,2,0.8,3.1,0.8c0.8,0,1.4-0.2,1.9-0.5c0.4-0.4,0.7-0.8,0.7-1.5c0-0.5-0.2-1-0.6-1.4
	s-1-0.7-1.8-1c-2.3-0.9-3.5-2.1-3.5-3.8c0-1.1,0.4-2,1.2-2.7c0.8-0.7,1.9-1,3.3-1c1.2,0,2.2,0.2,3,0.6L87,20.4
	c-0.8-0.4-1.6-0.6-2.6-0.6c-0.8,0-1.3,0.2-1.8,0.6c-0.4,0.3-0.5,0.7-0.5,1.2s0.2,1,0.6,1.3s1,0.7,1.9,1c1.1,0.5,2,1,2.5,1.6
	C87.8,26.1,88,26.9,88,27.8z M95.1,23.5h-2.3v4.7c0,1.2,0.4,1.8,1.2,1.8c0.4,0,0.7,0,0.9-0.1l0.1,1.6c-0.4,0.2-1,0.2-1.7,0.2
	c-0.8,0-1.5-0.3-2-0.8s-0.7-1.4-0.7-2.6v-4.8h-1.4v-1.6h1.4v-1.8l2.1-0.6v2.4H95C95.1,21.9,95.1,23.5,95.1,23.5z M105.7,26.6
	c0,1.5-0.4,2.7-1.3,3.6c-0.9,1-2.1,1.5-3.5,1.5s-2.5-0.5-3.4-1.4c-0.8-0.9-1.3-2.1-1.3-3.5c0-1.5,0.4-2.7,1.3-3.7
	c0.9-0.9,2-1.4,3.5-1.4c1.4,0,2.5,0.5,3.4,1.4S105.7,25.2,105.7,26.6z M103.5,26.7c0-0.9-0.2-1.6-0.6-2.3c-0.4-0.8-1.1-1.1-1.9-1.1
	c-0.9,0-1.5,0.4-2,1.1c-0.4,0.6-0.6,1.4-0.6,2.3s0.2,1.6,0.6,2.3c0.5,0.8,1.1,1.1,1.9,1.1s1.5-0.4,1.9-1.2
	C103.3,28.3,103.5,27.6,103.5,26.7z M112.6,23.8c-0.2,0-0.4-0.1-0.7-0.1c-0.8,0-1.3,0.3-1.7,0.9c-0.4,0.5-0.5,1.1-0.5,1.9v5h-2.1
	v-6.6c0-1.1,0-2.1-0.1-3h1.9l0.1,1.8h0.1c0.2-0.6,0.6-1.1,1.1-1.5c0.5-0.3,1-0.5,1.5-0.5h0.5C112.7,21.7,112.6,23.8,112.6,23.8z
	 M122.2,26.3c0,0.4,0,0.7-0.1,1h-6.4c0,0.9,0.3,1.7,0.9,2.2c0.5,0.4,1.2,0.7,2.1,0.7s1.8-0.1,2.6-0.5l0.3,1.5
	c-0.9,0.4-2,0.6-3.2,0.6c-1.5,0-2.7-0.4-3.5-1.3s-1.3-2.1-1.3-3.5s0.4-2.7,1.2-3.6c0.8-1,1.9-1.5,3.4-1.5c1.4,0,2.4,0.5,3.1,1.5
	C121.9,24,122.2,25.1,122.2,26.3z M120.1,25.7c0-0.6-0.1-1.2-0.4-1.6c-0.4-0.6-0.9-0.9-1.7-0.9c-0.7,0-1.3,0.3-1.7,0.9
	c-0.4,0.5-0.6,1-0.6,1.7C115.7,25.8,120.1,25.7,120.1,25.7z"/>
<g>
	<path class="st0" d="M48.7,13.4h-1.1L47,11.5h-2.1l-0.6,1.9h-1.1l2.1-6.5h1.3C46.6,6.9,48.7,13.4,48.7,13.4z M46.8,10.7L46.3,9
		c-0.1-0.2-0.2-0.6-0.3-1.2C45.9,8,45.8,8.5,45.6,9l-0.5,1.7H46.8z M54,8.7l-1.8,4.7h-1l-1.7-4.7h1.1l0.8,2.5
		c0.1,0.4,0.3,0.8,0.3,1.2c0.1-0.3,0.2-0.7,0.3-1.2l0.8-2.5H54z M57.8,13.4l-0.1-0.5c-0.3,0.4-0.8,0.6-1.4,0.6
		c-0.8,0-1.4-0.6-1.4-1.4c0-1.2,1-1.8,2.8-1.8v-0.1c0-0.6-0.3-0.9-1-0.9c-0.5,0-0.9,0.1-1.2,0.4L55.2,9c0.4-0.3,1-0.4,1.6-0.4
		c1.2,0,1.9,0.6,1.9,2v1.7c0,0.5,0,0.8,0.1,1.1C58.8,13.4,57.8,13.4,57.8,13.4z M57.7,11.1c-1.2,0-1.7,0.3-1.7,1
		c0,0.5,0.3,0.7,0.7,0.7c0.5,0,1-0.4,1-1V11.1z M61,7.9c-0.3,0-0.6-0.3-0.6-0.6s0.3-0.6,0.6-0.6c0.4,0,0.7,0.3,0.6,0.6
		C61.7,7.7,61.4,7.9,61,7.9z M61.6,13.4h-1V8.7h1V13.4z M64.5,13.4h-1V6.6h1V13.4z M68.9,13.4l-0.1-0.5c-0.3,0.4-0.8,0.6-1.4,0.6
		c-0.8,0-1.4-0.6-1.4-1.4c0-1.2,1-1.8,2.8-1.8v-0.1c0-0.6-0.3-0.9-1-0.9c-0.5,0-0.9,0.1-1.2,0.4L66.3,9c0.4-0.3,1-0.4,1.6-0.4
		c1.2,0,1.9,0.6,1.9,2v1.7c0,0.5,0,0.8,0.1,1.1C69.9,13.4,68.9,13.4,68.9,13.4z M68.8,11.1c-1.2,0-1.7,0.3-1.7,1
		c0,0.5,0.3,0.7,0.7,0.7c0.5,0,1-0.4,1-1V11.1z M74.1,13.5c-0.7,0-1.2-0.3-1.5-0.8l-0.1,0.7h-0.9V6.6h1v2.9c0.3-0.5,0.8-0.8,1.5-0.8
		c1.1,0,1.9,1,1.9,2.4C76.1,12.5,75.3,13.5,74.1,13.5z M73.8,9.4c-0.6,0-1.2,0.5-1.2,1.3v0.8c0,0.6,0.5,1.2,1.1,1.2
		c0.8,0,1.3-0.6,1.3-1.7C75.1,10.1,74.6,9.4,73.8,9.4z M78.7,13.4h-1V6.6h1V13.4z M84.4,11.3h-3.1c0,0.9,0.6,1.4,1.5,1.4
		c0.5,0,0.9-0.1,1.3-0.2l0.2,0.7c-0.4,0.2-1,0.3-1.6,0.3c-1.5,0-2.3-0.9-2.3-2.4c0-1.4,0.9-2.5,2.2-2.5c1.2,0,2,0.9,2,2.2
		C84.5,11,84.5,11.2,84.4,11.3z M83.5,10.6c0-0.7-0.4-1.2-1-1.2s-1.1,0.5-1.1,1.2H83.5z M90.8,13.5c-1.4,0-2.3-1-2.3-2.4
		c0-1.5,0.9-2.5,2.3-2.5s2.3,1,2.3,2.4C93.1,12.5,92.2,13.5,90.8,13.5z M90.8,9.4c-0.8,0-1.2,0.7-1.2,1.7s0.5,1.7,1.2,1.7
		S92,12,92,11.1C92.1,10.1,91.6,9.4,90.8,9.4z M98.8,13.4h-1v-2.7c0-0.8-0.3-1.3-1-1.3c-0.6,0-1,0.5-1,1.2v2.8h-1V10V8.7h0.9v0.7
		c0.3-0.5,0.9-0.8,1.5-0.8c1,0,1.6,0.8,1.6,2V13.4z M105.6,9.5h-1.2v2.3c0,0.6,0.2,0.9,0.6,0.9h0.5v0.8c-0.2,0.1-0.5,0.1-0.8,0.1
		c-0.8,0-1.3-0.5-1.3-1.6V9.5h-0.7V8.7h0.7V7.9l1-0.3v1.2h1.2C105.6,8.8,105.6,9.5,105.6,9.5z M111.2,13.4h-1v-2.7
		c0-0.8-0.3-1.3-1-1.3c-0.5,0-1,0.4-1,1.1v2.8h-1V6.6h1v2.8c0.3-0.5,0.8-0.8,1.4-0.8c1,0,1.6,0.8,1.6,2V13.4z M116.5,11.3h-3.1
		c0,0.9,0.6,1.4,1.5,1.4c0.5,0,0.9-0.1,1.3-0.2l0.2,0.7c-0.4,0.2-1,0.3-1.6,0.3c-1.5,0-2.3-0.9-2.3-2.4c0-1.4,0.9-2.5,2.2-2.5
		c1.2,0,2,0.9,2,2.2C116.6,11,116.6,11.2,116.5,11.3z M115.6,10.6c0-0.7-0.4-1.2-1-1.2s-1.1,0.5-1.1,1.2H115.6z"/>
</g>
</svg>
