<?xml version="1.0" encoding="utf-8"?>
<!-- Generator: Adobe Illustrator 24.3.0, SVG Export Plug-In . SVG Version: 6.00 Build 0)  -->
<svg version="1.1" id="Layer_1" xmlns="http://www.w3.org/2000/svg" xmlns:xlink="http://www.w3.org/1999/xlink" x="0px" y="0px"
	 viewBox="0 0 135 40" style="enable-background:new 0 0 135 40;" xml:space="preserve">
<style type="text/css">
	.st0{fill:#007C14;}
	.st1{fill:#007C14;stroke:#FFFFFF;stroke-width:0.1592;stroke-miterlimit:9.9484;}
	.st2{fill:url(#path64_1_);}
	.st3{fill:url(#path78_1_);}
	.st4{fill:url(#path88_1_);}
	.st5{fill:url(#path104_1_);}
</style>
<path id="path16" class="st0" d="M129.8,1.2c2.3,0,4.2,1.9,4.2,4.2v29.5c0,2.3-1.9,4.2-4.2,4.2H5.2C2.9,39,1,37.2,1,34.9V5.4
	c0-2.3,1.9-4.2,4.2-4.2H129.8 M129.8,0.4H5.2c-2.8,0-5,2.2-5,5v29.5c0,2.7,2.3,5,5,5h124.7c2.8,0,5-2.2,5-5V5.4
	C134.9,2.6,132.6,0.4,129.8,0.4z"/>
<g id="g18">
	<path id="path20" class="st1" d="M47.6,10.5c0,0.8-0.3,1.5-0.7,2c-0.6,0.6-1.3,0.9-2.2,0.9s-1.6-0.3-2.2-0.9
		c-0.6-0.6-0.9-1.3-0.9-2.2s0.3-1.6,0.9-2.2c0.6-0.6,1.3-0.9,2.2-0.9c0.4,0,0.8,0.1,1.2,0.3c0.4,0.2,0.7,0.4,0.9,0.7l-0.5,0.5
		c-0.4-0.5-0.9-0.7-1.7-0.7c-0.6,0-1.2,0.2-1.6,0.7c-0.5,0.4-0.7,1-0.7,1.7c0,0.7,0.2,1.3,0.7,1.7c0.5,0.4,1,0.7,1.6,0.7
		c0.7,0,1.2-0.2,1.7-0.7c0.3-0.3,0.5-0.7,0.5-1.2h-2.2v-0.9h2.9C47.5,10.3,47.6,10.4,47.6,10.5z"/>
</g>
<g id="g22">
	<path id="path24" class="st1" d="M52.1,8.1h-2.7V10h2.5v0.7h-2.5v1.9h2.7v0.7h-3.5V7.4h3.5V8.1z"/>
</g>
<g id="g26">
	<path id="path28" class="st1" d="M55.3,13.2h-0.8V8.1h-1.7V7.4h4.1v0.7h-1.7L55.3,13.2L55.3,13.2z"/>
</g>
<g id="g30">
	<path id="path32" class="st1" d="M60,13.2V7.4h0.8v5.9C60.8,13.2,60,13.2,60,13.2z"/>
</g>
<g id="g34">
	<path id="path36" class="st1" d="M64.2,13.2h-0.8V8.1h-1.7V7.4h4.1v0.7h-1.7C64.2,8.1,64.2,13.2,64.2,13.2z"/>
</g>
<g id="g38">
	<path id="path40" class="st1" d="M73.6,12.4c-0.6,0.6-1.3,0.9-2.2,0.9s-1.6-0.3-2.2-0.9c-0.6-0.6-0.9-1.3-0.9-2.2s0.3-1.6,0.9-2.2
		c0.6-0.6,1.3-0.9,2.2-0.9c0.9,0,1.6,0.3,2.2,0.9c0.6,0.6,0.9,1.3,0.9,2.2S74.2,11.8,73.6,12.4z M69.8,11.9c0.4,0.4,1,0.7,1.6,0.7
		c0.6,0,1.2-0.2,1.6-0.7c0.4-0.4,0.7-1,0.7-1.7S73.5,9,73,8.6c-0.4-0.4-1-0.7-1.6-0.7c-0.6,0-1.2,0.2-1.6,0.7
		c-0.4,0.4-0.7,1-0.7,1.7S69.3,11.5,69.8,11.9z"/>
</g>
<g id="g42">
	<path id="path44" class="st1" d="M75.6,13.2V7.4h0.9l2.9,4.6V7.4h0.8v5.9h-0.8l-3.1-4.8v4.8H75.6z"/>
</g>
<path id="path46" class="st0" d="M68.1,21.9c-2.4,0-4.3,1.8-4.3,4.2s1.9,4.2,4.3,4.2c2.4,0,4.3-1.8,4.3-4.2
	C72.4,23.6,70.5,21.9,68.1,21.9z M68.1,28.6c-1.3,0-2.4-1.1-2.4-2.6s1.1-2.6,2.4-2.6s2.4,1,2.4,2.6S69.4,28.6,68.1,28.6z M58.9,21.9
	c-2.4,0-4.3,1.8-4.3,4.2c0,2.4,1.9,4.2,4.3,4.2c2.4,0,4.3-1.8,4.3-4.2C63.2,23.6,61.3,21.9,58.9,21.9z M58.9,28.6
	c-1.3,0-2.4-1.1-2.4-2.6s1.1-2.6,2.4-2.6c1.3,0,2.4,1,2.4,2.6S60.2,28.6,58.9,28.6z M47.9,23.2V25h4.3c-0.1,1-0.5,1.7-1,2.2
	c-0.6,0.6-1.6,1.3-3.3,1.3c-2.7,0-4.7-2.1-4.7-4.8s2.1-4.8,4.7-4.8c1.4,0,2.5,0.6,3.3,1.3l1.3-1.3c-1.1-1-2.5-1.8-4.5-1.8
	c-3.7,0-6.7,2.9-6.7,6.5S44.4,30,48,30c2,0,3.5-0.6,4.6-1.8c1.2-1.2,1.6-2.8,1.6-4.2c0-0.4,0-0.8-0.1-1.1
	C53.9,23.2,47.9,23.2,47.9,23.2z M93,24.5c-0.4-0.9-1.4-2.7-3.7-2.7c-2.2,0-4,1.7-4,4.2c0,2.4,1.8,4.2,4.2,4.2c2,0,3.1-1.2,3.6-1.9
	l-1.5-1c-0.5,0.7-1.1,1.2-2.1,1.2c-0.9,0-1.6-0.4-2.1-1.3l5.7-2.3C93.2,25,93,24.5,93,24.5z M87.2,25.9c0-1.6,1.3-2.5,2.2-2.5
	c0.7,0,1.4,0.4,1.6,0.9C91,24.4,87.2,25.9,87.2,25.9z M82.7,29.9h1.9V17.7h-1.9V29.9z M79.6,22.8c-0.5-0.5-1.3-0.9-2.3-0.9
	c-2.1,0-4.1,1.9-4.1,4.2c0,2.4,2,4.2,4.1,4.2c1,0,1.8-0.4,2.2-1h0.1v0.6c0,1.6-0.9,2.5-2.3,2.5c-1.1,0-1.9-0.8-2.1-1.5l-1.6,0.7
	c0.5,1.1,1.7,2.5,3.8,2.5c2.2,0,4.1-1.3,4.1-4.4v-7.6h-1.9C79.6,22.1,79.6,22.8,79.6,22.8z M77.4,28.6c-1.3,0-2.4-1.1-2.4-2.5
	c0-1.5,1.1-2.6,2.4-2.6c1.3,0,2.3,1.1,2.3,2.6C79.7,27.6,78.7,28.6,77.4,28.6z M101.8,17.7h-4.5v12.2h1.9v-4.7h2.6
	c2.1,0,4.1-1.5,4.1-3.8C105.9,19.1,103.8,17.7,101.8,17.7z M101.8,23.6h-2.7v-4.2h2.7c1.4,0,2.2,1.1,2.2,2.1
	C104,22.5,103.2,23.6,101.8,23.6z M113.3,21.8c-1.4,0-2.8,0.6-3.3,1.9l1.7,0.7c0.4-0.7,1-0.9,1.7-0.9c1,0,2,0.6,2,1.6v0.1
	c-0.3-0.2-1.1-0.5-2-0.5c-1.8,0-3.6,1-3.6,2.8c0,1.7,1.5,2.7,3.1,2.7c1.3,0,2-0.6,2.4-1.2h0.1v1h1.8v-4.8
	C117.1,23.1,115.4,21.8,113.3,21.8z M113.1,28.6c-0.6,0-1.5-0.3-1.5-1c0-1,1.1-1.3,2-1.3c0.8,0,1.2,0.2,1.7,0.4
	C115.1,27.8,114.1,28.6,113.1,28.6z M123.7,22.1l-2.1,5.4h-0.1l-2.2-5.4h-2l3.3,7.5l-1.9,4.2h2l5.1-11.6
	C125.7,22.1,123.7,22.1,123.7,22.1z M106.8,29.9h1.9V17.7h-1.9V29.9z"/>
<g id="g48">
	
		<linearGradient id="path64_1_" gradientUnits="userSpaceOnUse" x1="33.7257" y1="1234.7461" x2="16.9437" y2="1217.964" gradientTransform="matrix(0.9972 0 0 0.9856 -11.6718 -1185.696)">
		<stop  offset="0" style="stop-color:#00A0FF"/>
		<stop  offset="7.000001e-03" style="stop-color:#00A1FF"/>
		<stop  offset="0.26" style="stop-color:#00BEFF"/>
		<stop  offset="0.512" style="stop-color:#00D2FF"/>
		<stop  offset="0.76" style="stop-color:#00DFFF"/>
		<stop  offset="1" style="stop-color:#00E3FF"/>
	</linearGradient>
	<path id="path64" class="st2" d="M10.6,7.9c-0.3,0.3-0.5,0.8-0.5,1.4V31c0,0.6,0.2,1.1,0.5,1.4l0.1,0.1l12.3-12.2V20L10.6,7.9z"/>
</g>
<g id="g66">
	
		<linearGradient id="path78_1_" gradientUnits="userSpaceOnUse" x1="45.7664" y1="1223.4761" x2="21.5694" y2="1223.4761" gradientTransform="matrix(0.9972 0 0 0.9856 -11.6718 -1185.696)">
		<stop  offset="0" style="stop-color:#FFE000"/>
		<stop  offset="0.409" style="stop-color:#FFBD00"/>
		<stop  offset="0.775" style="stop-color:#FFA500"/>
		<stop  offset="1" style="stop-color:#FF9C00"/>
	</linearGradient>
	<path id="path78" class="st3" d="M27.2,24.4l-4.1-4.1V20l4.1-4.1l0.1,0.1l4.9,2.8c1.4,0.8,1.4,2.1,0,2.9L27.2,24.4
		C27.3,24.3,27.2,24.4,27.2,24.4z"/>
</g>
<g id="g80">
	
		<linearGradient id="path88_1_" gradientUnits="userSpaceOnUse" x1="28.4218" y1="1229.4919" x2="5.6638" y2="1206.733" gradientTransform="matrix(0.9972 0 0 0.9856 -11.6718 -1185.696)">
		<stop  offset="0" style="stop-color:#FF3A44"/>
		<stop  offset="1" style="stop-color:#C31162"/>
	</linearGradient>
	<path id="path88" class="st4" d="M27.3,24.3l-4.2-4.2L10.6,32.4c0.5,0.5,1.2,0.5,2.1,0.1L27.3,24.3"/>
</g>
<g id="g90">
	
		<linearGradient id="path104_1_" gradientUnits="userSpaceOnUse" x1="10.8942" y1="1234.9391" x2="21.0562" y2="1224.7761" gradientTransform="matrix(0.9972 0 0 0.9856 -11.6718 -1185.696)">
		<stop  offset="0" style="stop-color:#32A071"/>
		<stop  offset="6.900000e-02" style="stop-color:#2DA771"/>
		<stop  offset="0.476" style="stop-color:#15CF74"/>
		<stop  offset="0.801" style="stop-color:#06E775"/>
		<stop  offset="1" style="stop-color:#00F076"/>
	</linearGradient>
	<path id="path104" class="st5" d="M27.3,15.9L12.7,7.8c-0.9-0.5-1.6-0.4-2.1,0.1l12.4,12.2C23.1,20.1,27.3,15.9,27.3,15.9z"/>
</g>
</svg>
